Land_normalized_Motion_pl05
version=1
nRows=16
nColumns=43
inDegrees=yes
endheader
time		pelvis_tilt		pelvis_list		pelvis_rotation		pelvis_tx		pelvis_ty		pelvis_tz		hip_flexion_r		hip_adduction_r		hip_rotation_r		knee_angle_r		ankle_angle_r		subtalar_angle_r		mtp_angle_r		hip_flexion_l		hip_adduction_l		hip_rotation_l		knee_angle_l		ankle_angle_l		subtalar_angle_l		mtp_angle_l		lumbar_extension		lumbar_bending		lumbar_rotation		neck_flexion		neck_lateral_bending		neck_rotation		arm_flex_r		arm_add_r		arm_rot_r		elbow_flex_r		pro_sup_r		wrist_flex_r		wrist_dev_r		hand_finger_flex_r		arm_flex_l		arm_add_l		arm_rot_l		elbow_flex_l		pro_sup_l		wrist_flex_l		wrist_dev_l		hand_finger_flex_l		
0.957500		2.370116		-5.751201		94.485569		-0.006715		1.032037		0.570002		36.582281		-7.438329		-14.383188		-19.881043		-27.779954		-2.243799		12.620532		36.963549		-6.715121		-7.185704		-17.760466		-21.634950		-6.229432		0.907343		-11.320080		7.280206		-0.779247		-31.390442		-2.045779		0.262864		-81.471511		-0.936000		-57.526417		52.794344		95.646241		-28.047446		-13.341104		31.510883		-90.350367		-12.305798		-65.207313		27.255888		102.366513		-38.206394		5.278966		79.392262		
0.960556		2.306429		-5.387992		94.422862		-0.006890		1.020531		0.564376		36.767836		-7.601958		-14.355973		-21.456360		-27.858423		-2.253731		12.690750		37.161560		-6.749023		-7.044230		-19.253375		-21.751986		-6.261687		1.030763		-11.763760		7.272731		-0.751670		-31.188949		-2.145790		0.521955		-80.742765		-0.462237		-59.098255		51.792530		95.101119		-28.628332		-12.985309		31.223021		-89.774459		-11.848674		-65.411772		26.741135		102.115660		-38.477012		5.367665		79.443468		
0.963611		2.243488		-5.050256		94.359035		-0.007001		1.008842		0.558888		37.068600		-7.774116		-14.325675		-23.176744		-27.972667		-2.136720		12.771467		37.438813		-6.783103		-6.903054		-20.845313		-21.921163		-6.302011		1.161160		-12.209963		7.251358		-0.731567		-30.923832		-2.204998		0.747562		-79.908295		-0.039157		-60.693996		50.794369		94.526953		-29.173969		-12.786266		30.962005		-89.102513		-11.399997		-65.622140		26.226610		101.926174		-38.882041		5.352222		79.441224		
0.966667		2.170561		-4.725010		94.299262		-0.007204		0.997000		0.553574		37.436831		-7.976923		-14.294655		-24.962792		-28.123499		-1.894715		12.864849		37.793809		-6.788828		-6.715971		-22.552004		-22.155506		-6.340350		1.297796		-12.688426		7.226060		-0.706144		-30.585324		-2.237661		0.971132		-78.973570		0.330169		-62.288121		49.794781		93.922039		-29.709854		-12.698569		30.714477		-88.320321		-10.970925		-65.794239		25.739324		101.776106		-39.332756		5.267820		79.423590		
0.969722		2.091739		-4.400846		94.251159		-0.007454		0.985074		0.548374		37.845812		-8.201879		-14.272862		-26.800357		-28.257024		-1.520137		12.982912		38.207791		-6.767572		-6.449860		-24.362687		-22.405785		-6.373110		1.450304		-13.196709		7.201194		-0.688760		-30.184140		-2.243636		1.189238		-77.956280		0.636402		-63.842673		48.814604		93.296039		-30.235542		-12.720554		30.476870		-87.439568		-10.569381		-65.914042		25.288463		101.640991		-39.789082		5.129151		79.407485		
0.972778		2.017124		-4.205352		94.312437		-0.007948		0.972748		0.543304		38.421816		-8.554255		-14.399781		-28.744138		-27.977183		-0.399720		13.436582		38.850356		-6.622563		-5.912023		-26.301521		-22.630925		-6.502197		2.015737		-13.563966		7.202626		-0.788999		-29.858661		-2.269879		1.402819		-76.909840		0.870109		-65.297826		47.710892		92.450825		-30.517786		-13.655484		30.257281		-86.445553		-10.195313		-65.915878		24.722601		101.326006		-40.725018		4.427297		79.547043		
0.975833		1.961560		-3.804640		94.297177		-0.008191		0.960743		0.538392		38.803366		-8.760568		-14.392975		-30.631930		-27.839311		0.036895		13.627934		39.299319		-6.585315		-5.514354		-28.313334		-22.557546		-6.357737		2.235526		-14.234741		7.199418		-0.777640		-29.321783		-2.194961		1.557358		-75.740812		1.036309		-66.584644		46.837981		91.811282		-31.082121		-13.566408		30.029542		-85.447315		-9.856036		-65.791420		24.442763		101.114857		-40.861121		4.365637		79.621899		
0.978889		1.917052		-3.416449		94.319852		-0.008522		0.948608		0.533617		39.205700		-8.978441		-14.373135		-32.564467		-27.184861		0.773858		13.928621		39.844293		-6.500442		-4.979684		-30.490091		-22.065854		-6.117284		2.540602		-14.916761		7.225135		-0.793960		-28.741629		-2.140881		1.727204		-74.536818		1.152231		-67.763407		45.980137		91.212936		-31.568381		-13.738942		29.835245		-84.354607		-9.544514		-65.631343		24.177315		100.841836		-41.044410		4.206636		79.659206		
0.981944		1.923074		-3.019070		94.432723		-0.009022		0.936301		0.528743		39.580810		-9.236810		-14.422032		-34.606112		-25.669771		2.153177		14.386269		40.466903		-6.418621		-4.364721		-32.874967		-20.877591		-5.379969		2.947474		-15.583683		7.334789		-0.869126		-28.279294		-2.067026		1.880182		-73.384893		1.213333		-68.738053		45.112990		90.690402		-31.872608		-14.271354		29.726075		-83.249930		-9.266072		-65.313281		23.970210		100.415563		-41.145613		3.882345		79.656045		
0.985000		1.892747		-2.621358		94.384211		-0.009261		0.923960		0.524214		40.025341		-9.405794		-14.379536		-36.682227		-23.884126		3.022193		14.772934		41.093478		-6.327347		-3.669816		-35.335530		-19.280185		-4.911780		3.295564		-16.357857		7.344585		-0.825400		-27.560809		-1.981723		1.962956		-72.106549		1.175037		-69.595376		44.341109		90.230441		-32.189695		-14.514830		29.625952		-82.046311		-8.965472		-64.937525		23.810558		100.050702		-41.130454		3.676446		79.665113		
0.988056		1.945669		-2.182350		94.503048		-0.009790		0.911550		0.519394		40.356644		-9.595464		-14.271702		-38.890498		-20.877636		4.693485		15.194668		41.794076		-6.311714		-3.145715		-38.098688		-16.622520		-3.562446		3.631947		-17.097513		7.518319		-0.861613		-27.124609		-1.884410		2.065201		-70.973608		1.098179		-70.133794		43.563050		89.976409		-32.226602		-15.092791		29.666292		-80.877465		-8.762699		-64.292214		23.772518		99.395514		-40.924700		3.283867		79.622461		
0.991111		1.986138		-1.743214		94.458665		-0.010056		0.899089		0.514831		40.791735		-9.676826		-14.047956		-41.251763		-17.452393		5.801896		15.407340		42.464585		-6.316948		-2.564225		-40.900605		-13.479327		-2.573559		3.783716		-17.921804		7.616279		-0.761613		-26.492854		-1.751373		2.110601		-69.772884		0.951880		-70.519289		42.912166		89.882947		-32.230176		-15.437838		29.734381		-79.630681		-8.550515		-63.578191		23.766636		98.800708		-40.649152		2.985350		79.572575		
0.994167		2.024678		-1.315626		94.363779		-0.010227		0.886554		0.510322		41.255017		-9.716967		-13.756108		-43.704142		-13.442129		6.832402		15.414808		43.173208		-6.356390		-2.058622		-43.831950		-9.774004		-1.530449		3.752234		-18.755694		7.689133		-0.612657		-25.854247		-1.606445		2.140228		-68.581313		0.745758		-70.703938		42.314179		89.995116		-32.102451		-15.754401		29.860002		-78.351307		-8.358582		-62.766924		23.828955		98.222033		-40.276931		2.695233		79.518576		
0.997222		2.051299		-0.842811		94.199776		-0.010419		0.873929		0.506216		41.711741		-9.782599		-13.416852		-46.237995		-9.049911		8.230925		13.438202		43.856264		-6.441787		-1.657961		-46.906340		-5.086992		0.046829		1.919771		-19.747373		7.747736		-0.367419		-24.838523		-1.514690		2.222834		-67.238272		0.513466		-71.058181		41.683502		90.488523		-31.760446		-16.156177		30.173467		-77.009753		-8.302756		-61.221511		23.743145		96.425317		-39.764639		2.062611		79.148287		
1.000278		2.071280		-0.514493		93.984022		-0.010333		0.861242		0.501753		42.433821		-9.730047		-12.928906		-49.030869		-4.141682		8.928344		10.562476		44.661981		-6.535047		-1.274456		-49.958016		-0.474286		0.915784		-0.733200		-20.526832		7.740089		-0.127139		-24.176308		-1.372794		2.256907		-66.067162		0.242781		-70.876367		41.314844		91.146493		-31.432600		-16.286355		30.380196		-75.710683		-8.253861		-59.616099		23.805715		95.019170		-39.446925		1.606335		79.076202		
1.003333		2.113190		-0.174086		93.729812		-0.010314		0.848724		0.497658		43.103891		-9.604287		-12.514100		-51.733447		0.725674		8.607029		7.722812		45.448040		-6.650211		-1.121320		-52.952071		3.775614		0.757014		-3.260203		-21.363746		7.754499		0.097629		-23.458341		-1.387382		2.186871		-64.855563		-0.192391		-70.494160		40.965165		91.900124		-30.967065		-16.454191		30.556577		-74.282456		-8.072434		-58.282024		23.971293		94.064911		-39.076350		1.184166		78.905163		
